<?xml version="1.0" encoding="utf-8"?>
<!--created by https://www.vecteezy.com/members/carterart-->
<svg viewBox="832.2000122070312 310.6999816894531 88.49993896484375 135.70001220703125" width="88.49993896484375" height="135.70001220703125" xmlns="http://www.w3.org/2000/svg"><g transform="matrix(1, 0, 0, 1, 1.1368683772161603e-13, 0)"><path class="st1" d="M904,328c-0.1,0.1-11.6,11.8-30.5,18.4c0.7-2.1,1.1-4.3,1.1-6.7c0-11.7-9.5-21.2-21.2-21.2&#10;&#9;c-11.7,0-21.2,9.5-21.2,21.2c0,0.8,0.1,1.6,0.1,2.4c0,3.2,0.7,6.4,2.2,9.3c1.9,3.8,8.1,12.3,24,10.4c16.2-2,29.4-8.3,38.7-14.1&#10;&#9;L867.7,443l11,3.4l42-135.7L904,328z" style="fill: rgb(204, 204, 204); opacity: 1;" transform="matrix(1, 0, 0, 1, 1.1368683772161603e-13, 0)"/></g></svg>
